<svg width="242" height="156" viewBox="0 0 242 156" fill="none" xmlns="http://www.w3.org/2000/svg">
<path d="M129.2 125V101.44H147.44C149.947 101.44 151.773 101.947 152.92 102.96C154.067 103.947 154.64 105.147 154.64 106.56V107.76C154.64 108.853 154.4 109.76 153.92 110.48C153.467 111.173 152.973 111.667 152.44 111.96C153.613 112.333 154.547 112.987 155.24 113.92C155.933 114.827 156.28 116.027 156.28 117.52V118.24C156.28 119.04 156.187 119.84 156 120.64C155.813 121.44 155.453 122.173 154.92 122.84C154.413 123.48 153.68 124 152.72 124.4C151.787 124.8 150.56 125 149.04 125H129.2ZM137 110.52H145C145.693 110.52 146.173 110.373 146.44 110.08C146.707 109.787 146.84 109.387 146.84 108.88V108.48C146.84 107.92 146.707 107.52 146.44 107.28C146.173 107.04 145.573 106.92 144.64 106.92H137V110.52ZM137 119.52H146.64C147.333 119.52 147.813 119.4 148.08 119.16C148.347 118.893 148.48 118.48 148.48 117.92V117.2C148.48 116.693 148.307 116.307 147.96 116.04C147.613 115.747 147.013 115.6 146.16 115.6H137V119.52ZM167.055 125C164.709 125 163.029 124.56 162.015 123.68C161.002 122.8 160.495 121.333 160.495 119.28C160.495 117.387 161.015 116.013 162.055 115.16C163.122 114.307 164.789 113.88 167.055 113.88H168.295C169.789 113.88 171.215 113.933 172.575 114.04C173.935 114.147 175.109 114.253 176.095 114.36V113.72C176.095 113.347 176.015 112.987 175.855 112.64C175.695 112.293 175.135 112.12 174.175 112.12H172.175C169.269 112.12 167.029 112.173 165.455 112.28C163.882 112.36 162.909 112.44 162.535 112.52L162.095 108.28C162.095 108.013 162.562 107.8 163.495 107.64C164.429 107.453 165.709 107.32 167.335 107.24C168.962 107.133 170.815 107.08 172.895 107.08H176.895C178.655 107.08 180.002 107.347 180.935 107.88C181.869 108.387 182.509 109.08 182.855 109.96C183.202 110.84 183.375 111.853 183.375 113V125H177.695L176.135 124.2C175.495 124.333 174.469 124.507 173.055 124.72C171.669 124.907 170.069 125 168.255 125H167.055ZM169.375 120.28H174.895C175.482 120.28 175.829 120.227 175.935 120.12C176.042 120.013 176.095 119.68 176.095 119.12V117.72H169.375C168.869 117.72 168.495 117.813 168.255 118C168.015 118.187 167.895 118.547 167.895 119.08C167.895 119.587 168.015 119.92 168.255 120.08C168.495 120.213 168.869 120.28 169.375 120.28ZM187.97 125V107.08H193.77L195.37 107.88C196.49 107.667 197.837 107.48 199.41 107.32C201.01 107.16 202.504 107.08 203.89 107.08H205.89C207.224 107.08 208.25 107.267 208.97 107.64C209.69 108.013 210.197 108.48 210.49 109.04C210.81 109.6 210.997 110.173 211.05 110.76C211.13 111.32 211.17 111.8 211.17 112.2V125H203.85V113.72C203.85 112.653 203.21 112.12 201.93 112.12H196.57C196.064 112.12 195.73 112.173 195.57 112.28C195.437 112.36 195.37 112.6 195.37 113V125H187.97ZM236.543 125.4C235.236 125.4 234.089 125.267 233.103 125C232.143 124.733 231.223 124.16 230.343 123.28C229.809 122.747 229.276 122.213 228.743 121.68C228.209 121.147 227.676 120.613 227.143 120.08C226.716 119.627 226.369 119.28 226.103 119.04C225.836 118.773 225.569 118.6 225.303 118.52C225.063 118.413 224.716 118.36 224.263 118.36C223.676 118.36 223.329 118.413 223.223 118.52C223.116 118.627 223.063 118.987 223.063 119.6V125H215.783V99.68H223.063V113.24H224.343C224.796 113.24 225.223 113.053 225.623 112.68C225.863 112.44 226.223 112 226.703 111.36C227.209 110.72 227.756 110.013 228.343 109.24C228.929 108.467 229.463 107.76 229.943 107.12H238.343L237.703 108.36C237.063 109.16 236.316 110.04 235.463 111C234.636 111.96 233.823 112.84 233.023 113.64C232.249 114.44 231.623 115 231.143 115.32C232.183 116.013 233.156 116.76 234.063 117.56C234.969 118.333 236.129 119.027 237.543 119.64C238.476 120.04 239.263 120.307 239.903 120.44C240.569 120.547 241.036 120.6 241.303 120.6L240.183 125C239.916 125.08 239.463 125.16 238.823 125.24C238.209 125.347 237.449 125.4 236.543 125.4Z" fill="#B6E72B"/>
<g clip-path="url(#clip0_0_1)">
<path d="M100.464 114.785C88.5768 113.474 73.4448 106.61 60.1536 96.5328L57.1272 94.224L55.692 94.8792C52.9464 96.096 50.4504 96.408 43.1496 96.408H36.192V84.084V71.76L34.6632 69.0144C31.8552 64.0848 29.9832 58.2192 29.952 54.3192C29.952 48.8592 32.76 44.46 37.5648 42.4632C38.844 41.9328 40.1544 41.496 40.4664 41.496C40.7784 41.496 40.2168 41.8392 39.2184 42.2448C35.6304 43.7424 33.9144 45.3336 32.3232 48.672C31.3872 50.6064 31.356 50.8872 31.3872 54.444C31.4184 58.4688 32.0112 60.9648 34.0704 65.52C39.5928 77.8128 54.444 92.8512 70.7928 102.742C82.7424 109.918 94.1616 114.005 103.584 114.41C109.73 114.66 113.537 113.474 117.125 110.167L118.685 108.732L117.655 110.042C116.438 111.634 115.409 112.414 113.194 113.381C110.011 114.785 105.206 115.315 100.464 114.785ZM50.544 88.764C50.544 88.5768 44.7408 82.68 44.5536 82.68C44.4912 82.68 44.4288 84.084 44.3976 85.8L44.3352 88.92H47.424C49.14 88.92 50.544 88.8576 50.544 88.764Z" fill="#B6E72B"/>
<path d="M98.3424 111.665C85.2696 109.231 68.7648 100.37 55.5048 88.7016C45.084 79.5288 37.5648 69.4824 34.5696 60.7464C33.696 58.2192 33.5712 57.4392 33.5712 54.444C33.54 51.3864 33.6336 50.856 34.32 49.452C38.22 41.7456 50.076 41.0592 66.1128 47.6424C69.1704 48.8904 76.7832 52.6344 77.22 53.1024C77.4072 53.2584 76.4088 52.8528 75.036 52.1664C63.5232 46.4568 52.5408 44.46 46.644 47.0808C41.808 49.2024 40.2168 54.444 42.4008 61.0584C45.4896 70.4184 54.2256 81.0576 66.7992 90.8544C72.6024 95.3784 78.2496 98.904 84.552 101.993C89.6688 104.489 90.4176 104.801 94.3488 106.049C99.5904 107.734 101.494 108.046 106.392 108.077C110.386 108.077 111.134 108.014 112.694 107.39C114.91 106.486 117.062 104.458 117.718 102.617L118.186 101.244L118.217 102.398C118.248 104.021 117.187 106.673 115.877 108.202C112.726 111.883 106.361 113.162 98.3424 111.665Z" fill="#B6E72B"/>
<path d="M75.66 94.3488C73.944 93.2256 71.3232 91.416 69.8568 90.324C67.1736 88.3272 67.1736 88.296 66.9552 86.6736C66.8616 85.7688 66.768 84.2088 66.768 83.2416V81.432H70.668H74.568V83.8032C74.568 86.8296 75.1296 88.0464 76.8768 88.92C79.1544 90.012 81.6504 89.544 82.836 87.7968C83.4288 86.9544 83.46 86.2992 83.46 78.78V70.668L81.0576 70.5744L78.624 70.4808V66.924V63.336H85.176H91.7592L91.6656 76.0656L91.572 88.764L90.7608 90.324C88.7952 94.0368 84.8328 96.4392 80.6832 96.3768C78.8736 96.3768 78.624 96.252 75.66 94.3488Z" fill="#B6E72B"/>
<path d="M108.108 96.2208C99.7152 94.9104 94.224 88.5144 94.224 80.028C94.224 75.192 95.6904 71.4792 98.8104 68.3592C101.462 65.7384 104.021 64.428 107.858 63.7416C110.448 63.2736 110.885 63.2736 113.443 63.7416C119.309 64.8336 123.49 68.2344 124.987 73.164L125.393 74.568H121.368C119.09 74.568 117.312 74.4432 117.312 74.2872C117.312 74.1312 116.938 73.5384 116.47 72.9768C114.005 70.0752 108.077 70.044 105.05 72.9456C102.492 75.348 101.743 80.6832 103.397 84.5832C104.052 86.1744 106.298 88.1088 108.014 88.5768C109.918 89.1072 113.381 88.8888 114.91 88.1712C115.97 87.6408 117.624 85.7688 117.624 85.1136C117.624 84.9576 116.095 84.864 114.192 84.864H110.76V81.432V78H118.404H126.048V80.4336C126.048 86.3304 123.583 91.5096 119.527 94.0368C116.875 95.7216 111.509 96.7512 108.108 96.2208Z" fill="#B6E72B"/>
<path d="M61.4328 83.46C57.3456 79.6224 56.5656 78.7176 56.3472 77.376C55.9416 74.7552 53.7264 72.072 51.3864 71.3856C50.0448 70.98 49.1088 69.7944 46.9248 65.7696L45.6144 63.336H47.6736C57.7512 63.3672 64.584 70.1376 64.584 80.028C64.584 81.4008 64.3968 83.2104 64.1784 84.084L63.7728 85.6128L61.4328 83.46Z" fill="#B6E72B"/>
</g>
<defs>
<clipPath id="clip0_0_1">
<rect width="156" height="156" fill="white"/>
</clipPath>
</defs>
</svg>
